<svg width="148" height="86" viewBox="0 0 148 86" fill="none" xmlns="http://www.w3.org/2000/svg">
<path d="M18.463 39V21.501C18.463 19.715 17.836 18.195 16.582 16.941C16.012 16.371 15.328 15.915 14.53 15.573C13.77 15.231 12.991 15.06 12.193 15.06C10.483 15.06 9.00098 15.687 7.74698 16.941C6.49298 18.195 5.86599 19.715 5.86599 21.501V39H0.849983V0.980997H5.86599V12.495C7.68999 10.785 9.79898 9.92999 12.193 9.92999C13.713 9.92999 15.157 10.234 16.525 10.842C17.893 11.412 19.109 12.229 20.173 13.293C21.199 14.357 21.997 15.611 22.567 17.055C23.175 18.461 23.479 19.943 23.479 21.501V39H18.463Z" fill="#001C06"/>
<path d="M34.085 26.916C34.085 27.828 34.408 28.778 35.054 29.766C35.738 30.754 36.517 31.59 37.391 32.274C38.987 33.528 40.8489 34.155 42.9769 34.155C46.3589 34.155 49.1139 32.521 51.2419 29.253L55.5739 31.818C54.0919 34.212 52.2679 36.055 50.1019 37.347C47.9359 38.639 45.5609 39.285 42.9769 39.285C41.0389 39.285 39.196 38.924 37.448 38.202C35.7 37.442 34.161 36.397 32.831 35.067C31.501 33.737 30.456 32.198 29.696 30.45C28.974 28.702 28.613 26.859 28.613 24.921C28.613 22.983 28.974 21.14 29.696 19.392C30.456 17.606 31.501 16.048 32.831 14.718C34.123 13.388 35.643 12.362 37.391 11.64C39.177 10.918 41.0389 10.557 42.9769 10.557C44.9149 10.557 46.7579 10.918 48.5059 11.64C50.2919 12.362 51.8309 13.388 53.1229 14.718C55.9349 17.606 57.3409 20.95 57.3409 24.75C57.3409 25.434 57.2839 26.156 57.1699 26.916H34.085ZM42.9769 15.231C41.4189 15.231 39.9559 15.573 38.5879 16.257C37.2199 16.941 36.118 17.853 35.282 18.993C34.484 20.095 34.085 21.273 34.085 22.527H51.8689C51.8689 21.273 51.4509 20.095 50.6149 18.993C49.8169 17.853 48.7339 16.941 47.3659 16.257C45.9979 15.573 44.5349 15.231 42.9769 15.231Z" fill="#001C06"/>
<path d="M80.083 39V21.9C80.083 20.19 79.456 18.708 78.202 17.454C76.986 16.238 75.504 15.63 73.756 15.63C72.046 15.63 70.564 16.257 69.31 17.511C68.74 18.081 68.284 18.765 67.942 19.563C67.6 20.323 67.429 21.102 67.429 21.9V39H62.47V11.184H67.429V13.521C68.151 12.647 69.101 11.925 70.279 11.355C71.457 10.785 72.616 10.5 73.756 10.5C75.276 10.5 76.72 10.804 78.088 11.412C79.494 11.982 80.729 12.799 81.793 13.863C82.819 14.889 83.617 16.105 84.187 17.511C84.795 18.879 85.099 20.342 85.099 21.9V39H80.083Z" fill="#001C06"/>
<path d="M43.0359 73.285C41.0979 73.285 39.2549 72.905 37.5069 72.145C35.7589 71.385 34.2199 70.34 32.8899 69.01C31.5599 67.68 30.5149 66.141 29.7549 64.393C28.9949 62.645 28.6149 60.802 28.6149 58.864C28.6149 56.888 28.9949 55.007 29.7549 53.221C30.5149 51.435 31.5599 49.877 32.8899 48.547C34.2199 47.217 35.7589 46.191 37.5069 45.469C39.2549 44.709 41.0979 44.329 43.0359 44.329C45.0119 44.329 46.8928 44.709 48.6788 45.469C50.4648 46.191 52.0228 47.217 53.3528 48.547C54.6828 49.877 55.7088 51.435 56.4308 53.221C57.1908 55.007 57.5708 56.888 57.5708 58.864C57.5708 60.802 57.1908 62.645 56.4308 64.393C55.7088 66.141 54.6828 67.68 53.3528 69.01C52.0228 70.34 50.4648 71.385 48.6788 72.145C46.8928 72.905 45.0119 73.285 43.0359 73.285ZM43.0359 49.402C40.4899 49.402 38.3049 50.314 36.4809 52.138C35.6069 53.012 34.9229 54.038 34.4289 55.216C33.9349 56.394 33.6879 57.61 33.6879 58.864C33.6879 60.118 33.9349 61.315 34.4289 62.455C34.9229 63.595 35.6069 64.602 36.4809 65.476C37.3549 66.35 38.3429 67.034 39.4449 67.528C40.5849 68.022 41.7819 68.269 43.0359 68.269C44.2899 68.269 45.5059 68.022 46.6839 67.528C47.8619 67.034 48.8688 66.35 49.7048 65.476C50.5408 64.602 51.2058 63.595 51.6998 62.455C52.1938 61.315 52.4408 60.118 52.4408 58.864C52.4408 57.61 52.1938 56.394 51.6998 55.216C51.2058 54.038 50.5408 53.012 49.7048 52.138C48.8688 51.264 47.8619 50.599 46.6839 50.143C45.5439 49.649 44.3279 49.402 43.0359 49.402Z" fill="#001C06"/>
<path d="M80.14 72.829V70.435C79.38 71.233 78.411 71.898 77.233 72.43C76.093 72.962 74.953 73.228 73.813 73.228C72.293 73.228 70.83 72.943 69.424 72.373C68.056 71.765 66.84 70.929 65.776 69.865C64.75 68.801 63.933 67.585 63.325 66.217C62.755 64.811 62.47 63.329 62.47 61.771V44.5H67.486V61.771C67.486 63.519 68.113 65.02 69.367 66.274C70.621 67.528 72.103 68.155 73.813 68.155C74.611 68.155 75.409 67.984 76.207 67.642C77.005 67.3 77.689 66.844 78.259 66.274C79.513 65.02 80.14 63.519 80.14 61.771V44.5H85.099V72.829H80.14Z" fill="#001C06"/>
<path d="M109.084 73V55.9C109.084 54.19 108.457 52.708 107.203 51.454C105.987 50.238 104.505 49.63 102.757 49.63C101.047 49.63 99.5649 50.257 98.311 51.511C97.741 52.081 97.2849 52.765 96.9429 53.563C96.6009 54.323 96.4299 55.102 96.4299 55.9V73H91.4709V45.184H96.4299V47.521C97.1519 46.647 98.1019 45.925 99.2799 45.355C100.458 44.785 101.617 44.5 102.757 44.5C104.277 44.5 105.721 44.804 107.089 45.412C108.495 45.982 109.73 46.799 110.794 47.863C111.82 48.889 112.618 50.105 113.188 51.511C113.796 52.879 114.1 54.342 114.1 55.9V73H109.084Z" fill="#001C06"/>
<path d="M133.041 85.141C128.519 85.141 124.605 83.127 121.299 79.099L125.802 76.42C127.854 78.814 130.267 80.011 133.041 80.011C134.295 80.011 135.492 79.764 136.632 79.27C137.772 78.776 138.76 78.092 139.596 77.218C140.432 76.344 141.078 75.337 141.534 74.197C142.028 73.057 142.275 71.86 142.275 70.606V69.238C139.691 72.126 136.594 73.57 132.984 73.57C131.046 73.57 129.184 73.171 127.398 72.373C125.65 71.537 124.13 70.416 122.838 69.01C121.546 67.604 120.52 66.008 119.76 64.222C119.038 62.436 118.677 60.593 118.677 58.693C118.677 56.755 119.038 54.931 119.76 53.221C120.52 51.473 121.565 49.934 122.895 48.604C124.225 47.312 125.745 46.305 127.455 45.583C129.203 44.861 131.046 44.5 132.984 44.5C135.074 44.5 136.936 44.956 138.57 45.868C140.204 46.78 141.439 47.806 142.275 48.946V45.013H147.405V70.606C147.405 72.582 147.025 74.444 146.265 76.192C145.543 77.94 144.517 79.498 143.187 80.866C141.895 82.196 140.356 83.241 138.57 84.001C136.822 84.761 134.979 85.141 133.041 85.141ZM132.984 49.687C131.73 49.687 130.533 49.934 129.393 50.428C128.253 50.884 127.265 51.549 126.429 52.423C125.593 53.297 124.928 54.323 124.434 55.501C123.94 56.641 123.693 57.838 123.693 59.092C123.693 60.346 123.94 61.562 124.434 62.74C124.928 63.88 125.593 64.868 126.429 65.704C127.265 66.54 128.253 67.205 129.393 67.699C130.533 68.193 131.73 68.44 132.984 68.44C134.238 68.44 135.435 68.193 136.575 67.699C137.715 67.205 138.703 66.54 139.539 65.704C140.375 64.868 141.021 63.88 141.477 62.74C141.971 61.562 142.218 60.346 142.218 59.092C142.218 57.838 141.971 56.641 141.477 55.501C141.021 54.323 140.375 53.297 139.539 52.423C138.703 51.549 137.715 50.884 136.575 50.428C135.435 49.934 134.238 49.687 132.984 49.687Z" fill="#001C06"/>
<path d="M141.99 40.5C141.99 40.5 141.99 38.943 141.99 37.917V35.922C141.116 36.834 140.014 37.575 138.684 38.145C137.354 38.677 136.005 38.943 134.637 38.943C132.965 38.943 128.88 38.525 127.398 37.917C125.916 37.271 124.605 36.378 123.465 35.238C122.287 34.098 121.375 32.787 120.729 31.305C120.083 29.785 119.76 28.189 119.76 26.517V9.81599H124.776V26.175C124.776 27.505 125.099 28.759 125.745 29.937C126.429 31.077 127.322 31.989 128.424 32.673C129.564 33.357 133.307 33.813 134.637 33.813C135.967 33.813 137.202 33.49 138.342 32.844C139.482 32.16 140.375 31.248 141.021 30.108C141.667 28.93 141.99 27.657 141.99 26.289V9.92999H147.006V40.5H141.99Z" fill="#001C06"/>
<path d="M109.084 22.527V21.843C109.084 20.133 108.457 18.651 107.203 17.397C105.987 16.181 104.505 15.573 102.757 15.573C101.047 15.573 99.5649 16.2 98.311 17.454C97.741 18.024 97.2849 18.708 96.9429 19.506C96.6009 20.266 96.4299 21.045 96.4299 21.843V38.943H91.4709V21.843C92.5638 17.7896 92.1066 16.897 94.4998 14C95.2218 13.126 96.8218 11.982 97.9998 11.412C99.1778 10.842 101.617 10.443 102.757 10.443C104.277 10.443 105.721 10.747 107.089 11.355C108.495 11.925 109.73 12.742 110.794 13.806C111.82 14.832 112.618 16.048 113.188 17.454C113.796 18.822 114.1 20.285 114.1 21.843V22.527H109.084Z" fill="#001C06"/>
<path d="M5.86598 44.329V61.828C5.86598 63.614 6.49298 65.134 7.74698 66.388C8.31698 66.958 9.00098 67.414 9.79898 67.756C10.559 68.098 11.338 68.269 12.136 68.269C13.846 68.269 15.328 67.642 16.582 66.388C17.836 65.134 18.463 63.614 18.463 61.828V44.329H23.479V74.254C23.479 74.254 23.2139 76.0268 23 76.648C22.3624 78.5 21.83 79.328 20.69 80.468C19.512 81.646 18.52 82.354 17 83C15.518 83.646 14.172 84 12.5 84C10.334 84 8.862 83.602 7 82.5C5.176 81.398 2.868 79.09 1.5 77L4.86598 75C5.5 76.5 7.48828 78.5 8.5 79C9.79898 79.642 10.882 80 12.136 80C14.15 80 15.518 79.482 17 78C18.362 77 18.862 74.6224 18.862 74.254C18.862 73.8855 18.862 70.5 18.862 70.5C17.038 72.21 14.53 73.399 12.136 73.399C10.616 73.399 9.17198 73.095 7.80398 72.487C6.43598 71.917 5.21998 71.1 4.15598 70.036C3.12998 68.972 2.33198 67.718 1.76198 66.274C1.15398 64.868 0.849983 63.386 0.849983 61.828V44.329H5.86598Z" fill="#001C06"/>
</svg>
